
        <svg xmlns="http://www.w3.org/2000/svg" xmlns:xlink="http://www.w3.org/1999/xlink" version="1.1" width="3166.475367610509" 
        height="896.9093251063744" viewBox="0 0 3166.475367610509 896.9093251063744">
			
			<g transform="scale(8.323768380525454) translate(10, 10)">
				<defs id="SvgjsDefs1599"></defs><g id="SvgjsG1600" featureKey="Ez5wPW-0" transform="matrix(0.9126810004387889,0,0,0.9126810004387889,-13.690215006581832,13.755155770074595)" fill="#ff5a5f"><g xmlns="http://www.w3.org/2000/svg" transform="translate(0,-952.36218)"><path style="font-size:medium;font-style:normal;font-variant:normal;font-weight:normal;font-stretch:normal;text-indent:0;text-align:start;text-decoration:none;line-height:normal;letter-spacing:normal;word-spacing:normal;text-transform:none;direction:ltr;block-progression:tb;writing-mode:lr-tb;text-anchor:start;baseline-shift:baseline;opacity:1;color:;fill:#ff5a5f;fill-opacity:1;stroke:none;stroke-width:2;marker:none;visibility:visible;display:inline;overflow:visible;enable-background:accumulate;font-family:Sans;-inkscape-font-specification:Sans" d="M 39 25.46875 L 38.25 26.3125 L 28 37.90625 L 28 36 L 28 35 L 27 35 L 21 35 L 20 35 L 20 36 L 20 46.9375 L 15.25 52.3125 L 16.75 53.65625 L 20 49.96875 L 20 72 L 15 72 L 15 74 L 85 74 L 85 72 L 45 72 L 45 58 L 45 57 L 44 57 L 34 57 L 33 57 L 33 58 L 33 72 L 22 72 L 22 47.71875 L 39 28.5 L 61.25 53.65625 L 61.5625 54 L 62 54 L 78 54 L 78 67 L 80 67 L 80 54 L 84 54 L 86.21875 54 L 84.75 52.3125 L 69.75 35.3125 L 69.4375 35 L 69 35 L 47.4375 35 L 39.75 26.3125 L 39 25.46875 z M 22 37 L 26 37 L 26 40.15625 L 22 44.6875 L 22 37 z M 49.21875 37 L 68.5625 37 L 81.78125 52 L 62.46875 52 L 49.21875 37 z M 57 57 L 57 58 L 57 66 L 57 67 L 58 67 L 74 67 L 75 67 L 75 66 L 75 58 L 75 57 L 74 57 L 58 57 L 57 57 z M 35 59 L 43 59 L 43 72 L 35 72 L 35 59 z M 59 59 L 65 59 L 65 65 L 59 65 L 59 59 z M 67 59 L 73 59 L 73 65 L 67 65 L 67 59 z " transform="translate(0,952.36218)"></path></g></g><g id="SvgjsG1601" featureKey="ujU5uU-0" transform="matrix(3.6879178868890774,0,0,3.6879178868890774,82.04966498707422,13.920679279309748)" fill="#ff5a5f"><path d="M0.82 16.48 c0 2.8 3.54 3.52 5.7 3.52 c2.14 0 5.34 -0.7 5.34 -3.4 c0 -0.82 -0.24 -1.22 -0.72 -1.82 c-0.4 -0.52 -1 -0.9 -1.56 -1.18 c-0.42 -0.22 -0.88 -0.4 -1.34 -0.54 c-0.46 -0.16 -0.92 -0.28 -1.36 -0.44 c-0.24 -0.08 -0.54 -0.16 -0.86 -0.28 c-0.3 -0.1 -0.6 -0.2 -0.78 -0.3 c-0.1 -0.06 -0.2 -0.12 -0.28 -0.18 s-0.1 -0.12 -0.1 -0.18 c0 -0.16 0.16 -0.3 0.48 -0.42 c0.32 -0.1 0.68 -0.14 0.9 -0.14 c0.34 0 0.8 0.08 1.18 0.24 c0.38 0.18 0.62 0.42 0.62 0.74 l0 0.52 l3.64 -0.02 l0 -0.56 c0 -1.18 -0.64 -2.04 -1.6 -2.68 c-1.18 -0.76 -2.52 -1 -3.9 -1 c-2.16 0 -5.26 0.9 -5.26 3.54 c0 0.46 0.12 0.9 0.36 1.3 c0.2 0.32 0.46 0.68 0.78 0.94 c0.66 0.52 1.66 0.94 2.46 1.2 c0.42 0.14 0.88 0.24 1.3 0.4 c0.24 0.08 0.56 0.16 0.88 0.26 c0.32 0.12 0.6 0.22 0.82 0.32 c0.22 0.12 0.36 0.26 0.36 0.42 c0 0.18 -0.14 0.3 -0.5 0.4 c-0.32 0.08 -0.7 0.08 -0.92 0.08 c-0.5 0 -1.14 -0.06 -1.52 -0.28 c-0.12 -0.06 -0.24 -0.16 -0.34 -0.26 s-0.16 -0.18 -0.16 -0.26 l-0.02 -0.7 l-3.62 0 l0 0.08 c0.02 0.22 0.02 0.44 0.02 0.68 z M13.48 4.58 c0 5 -0.02 10.24 -0.02 15.24 l0 0.18 l3.24 0 l0 -5.92 c0 -1.44 1.26 -2.7 2.8 -2.7 c1.48 0 2.64 1.14 2.8 2.5 c0.02 0.2 0 0.42 0 0.62 l0.02 1.46 l0 4 l3.24 0.04 l0 -6.02 c0 -1.46 -0.74 -2.9 -1.8 -3.92 c-1.16 -1.12 -2.58 -1.72 -4.26 -1.72 c-1 0 -1.96 0.22 -2.84 0.66 l0 -4.6 l-3.18 0 l0 0.18 z M26.54 14.18 c0 -3.08 2.62 -5.76 5.98 -5.76 c3.34 0 5.96 2.68 5.96 5.76 c0 0.42 -0.04 0.82 -0.12 1.2 l-8.34 0.02 c0.44 0.9 1.36 1.54 2.5 1.54 c0.78 0 1.48 -0.32 1.96 -0.8 l3.64 0 c-0.82 2.18 -3 3.82 -5.6 3.82 c-3.36 0 -5.98 -2.6 -5.98 -5.7 l0 -0.08 z M30.119999999999997 12.8 l-0.1 0.28 l5.06 0 l-0.16 -0.28 c-0.48 -0.8 -1.34 -1.36 -2.4 -1.36 s-1.94 0.56 -2.4 1.36 z M40.08 20.02 l3.24 0 l-0.04 -15.64 l-3.18 0 l0 0.2 z M48.1 11.16 l0 8.84 l3.24 0 l0 -3.52 c0 -1.28 -0.04 -2.58 -0.04 -3.86 l0 -1.46 l3.2 -0.04 l0 -2.74 l-3.2 0.02 l0 -4.04 l-3.18 0 l0 4.06 l-3.2 0 l0 2.74 l3.18 0 z M55.06 14.18 c0 -3.08 2.62 -5.76 5.98 -5.76 c3.34 0 5.96 2.68 5.96 5.76 c0 0.42 -0.04 0.82 -0.12 1.2 l-8.34 0.02 c0.44 0.9 1.36 1.54 2.5 1.54 c0.78 0 1.48 -0.32 1.96 -0.8 l3.64 0 c-0.82 2.18 -3 3.82 -5.6 3.82 c-3.36 0 -5.98 -2.6 -5.98 -5.7 l0 -0.08 z M58.64000000000001 12.8 l-0.1 0.28 l5.06 0 l-0.16 -0.28 c-0.48 -0.8 -1.34 -1.36 -2.4 -1.36 s-1.94 0.56 -2.4 1.36 z M68.60000000000001 8.42 l0 11.58 l3.18 0 l0.04 -6.04 c0.02 -1.48 1.22 -2.72 2.8 -2.72 l0.84 0 l0.02 -3.04 l-0.86 0 c-0.98 0 -1.94 0.2 -2.8 0.64 l0 -0.42 l-3.22 0 z"></path></g>
			</g>
		</svg>
	